<svg width="58" height="32" viewBox="0 0 58 32" fill="none" xmlns="http://www.w3.org/2000/svg">
<path d="M26.384 27.598C26.804 28.242 27.238 28.76 27.686 29.152C28.134 29.544 28.708 29.88 29.408 30.16V31C27.448 30.916 25.264 30.874 22.856 30.874C21.008 30.874 19.23 30.916 17.522 31V30.16C18.306 30.104 18.866 30.02 19.202 29.908C19.566 29.796 19.748 29.6 19.748 29.32C19.748 29.096 19.594 28.746 19.286 28.27L13.196 18.4C12.636 17.504 12.16 16.902 11.768 16.594C11.404 16.286 10.9 16.104 10.256 16.048V26.548C10.256 27.612 10.326 28.382 10.466 28.858C10.634 29.334 10.928 29.656 11.348 29.824C11.768 29.992 12.454 30.104 13.406 30.16V31C11.894 30.916 9.78 30.874 7.064 30.874C4.068 30.874 1.856 30.916 0.428 31V30.16C1.352 30.104 2.024 29.992 2.444 29.824C2.892 29.656 3.186 29.334 3.326 28.858C3.494 28.382 3.578 27.612 3.578 26.548V5.716C3.578 4.652 3.494 3.882 3.326 3.406C3.186 2.93 2.892 2.608 2.444 2.44C2.024 2.272 1.352 2.16 0.428 2.104V1.264C1.856 1.348 4.068 1.39 7.064 1.39C9.78 1.39 11.894 1.348 13.406 1.264V2.104C12.454 2.16 11.768 2.272 11.348 2.44C10.928 2.608 10.634 2.93 10.466 3.406C10.326 3.882 10.256 4.652 10.256 5.716V15.166C11.376 15.11 12.398 14.774 13.322 14.158C14.246 13.542 15.296 12.562 16.472 11.218L18.95 8.236C20.238 6.752 20.882 5.45 20.882 4.33C20.882 3.658 20.602 3.126 20.042 2.734C19.51 2.342 18.754 2.118 17.774 2.062V1.264C19.818 1.348 21.89 1.39 23.99 1.39C25.614 1.39 26.93 1.348 27.938 1.264V2.062C25.698 2.594 23.668 3.938 21.848 6.094L16.598 12.352L26.384 27.598ZM44.2698 0.675997C46.0058 0.675997 47.4618 0.913998 48.6378 1.39C49.8418 1.866 51.0178 2.538 52.1658 3.406C52.5018 3.658 52.7818 3.784 53.0058 3.784C53.2858 3.784 53.5098 3.588 53.6778 3.196C53.8458 2.776 53.9718 2.132 54.0558 1.264H55.0218C54.9098 3.168 54.8538 6.556 54.8538 11.428H53.8878C53.6638 9.524 53.3278 7.984 52.8798 6.808C52.4598 5.632 51.7458 4.638 50.7378 3.826C50.0658 3.182 49.2398 2.678 48.2598 2.314C47.2798 1.95 46.2718 1.768 45.2358 1.768C43.2758 1.768 41.6378 2.44 40.3218 3.784C39.0338 5.1 38.0818 6.85 37.4658 9.034C36.8498 11.218 36.5418 13.612 36.5418 16.216C36.5418 25.904 39.2298 30.748 44.6058 30.748C45.8378 30.748 46.8318 30.468 47.5878 29.908C47.9518 29.656 48.2038 29.362 48.3438 29.026C48.5118 28.69 48.5958 28.256 48.5958 27.724V23.608C48.5958 22.292 48.4838 21.34 48.2598 20.752C48.0358 20.136 47.6298 19.716 47.0418 19.492C46.4818 19.268 45.5858 19.128 44.3538 19.072V18.232C46.0898 18.316 48.4838 18.358 51.5358 18.358C54.0278 18.358 55.9038 18.316 57.1638 18.232V19.072C56.6038 19.128 56.1978 19.24 55.9458 19.408C55.6938 19.576 55.5118 19.898 55.3998 20.374C55.3158 20.85 55.2738 21.62 55.2738 22.684V31H54.4338C54.4058 30.412 54.2798 29.866 54.0558 29.362C53.8598 28.858 53.5798 28.606 53.2158 28.606C52.7398 28.606 51.9838 28.9 50.9478 29.488C48.5118 30.888 46.2158 31.588 44.0598 31.588C39.2158 31.588 35.5058 30.272 32.9298 27.64C30.3538 24.98 29.0658 21.256 29.0658 16.468C29.0658 13.332 29.7098 10.574 30.9978 8.194C32.3138 5.814 34.1198 3.966 36.4158 2.65C38.7118 1.334 41.3298 0.675997 44.2698 0.675997Z" fill="white"/>
</svg>
